<svg width="16" height="16" viewBox="0 0 16 16" fill="none" xmlns="http://www.w3.org/2000/svg">
<g clip-path="url(#clip0)">
<path d="M8.59335 0.966685L13.9267 3.63335C14.1488 3.74374 14.3358 3.9139 14.4665 4.12471C14.5972 4.33553 14.6665 4.57863 14.6667 4.82668V11.18C14.6665 11.4281 14.5972 11.6712 14.4665 11.882C14.3358 12.0928 14.1488 12.263 13.9267 12.3734L8.59335 15.04C8.40811 15.1327 8.20382 15.181 7.99668 15.181C7.78954 15.181 7.58525 15.1327 7.40001 15.04L2.06668 12.3734C1.84476 12.2615 1.65851 12.0899 1.52894 11.8779C1.39936 11.6659 1.33162 11.4218 1.33335 11.1734V4.82668C1.33348 4.57863 1.4028 4.33553 1.53353 4.12471C1.66426 3.9139 1.8512 3.74374 2.07335 3.63335L7.40668 0.966685C7.59105 0.875069 7.79413 0.827393 8.00001 0.827393C8.20589 0.827393 8.40897 0.875069 8.59335 0.966685V0.966685Z" stroke="#FA5A73" stroke-width="2" stroke-linecap="round" stroke-linejoin="round"/>
<path d="M1.54666 4.10669L7.99999 7.33336L14.4533 4.10669" stroke="#FA5A73" stroke-width="2" stroke-linecap="round" stroke-linejoin="round"/>
<path d="M8 15.1734V7.33337" stroke="#FA5A73" stroke-width="2" stroke-linecap="round" stroke-linejoin="round"/>
</g>
<defs>
<clipPath id="clip0">
<rect width="16" height="16" fill="white"/>
</clipPath>
</defs>
</svg>
